<svg viewBox="-0.721 -1.363 201.342 80.30626884422111" xmlns="http://www.w3.org/2000/svg" style="max-height: 500px" width="201.342" height="80.30626884422111">
  <defs>
    <clipPath id="clip-path">
      <rect fill="#fff" height="78" width="382" data-name="Rectangle 2" id="Rectangle_2"/>
    </clipPath>
  </defs>
  <g clip-path="url(#clip-path)" id="int-logo-2-data">
    <path style="fill: rgb(60, 55, 56);" d="M89.414,14.073a14.245,14.245,0,0,0-2.636,1.694c-.8.656-1.544,1.348-2.268,2.075a23.734,23.734,0,0,0-1.995,2.588,22.232,22.232,0,0,0-1.639,2.815,11.09,11.09,0,0,0-1.033,3.22,4.877,4.877,0,0,0-.071,1.455,2.643,2.643,0,0,0,.558,1.407,2.077,2.077,0,0,0,1.283.811,3.783,3.783,0,0,0,1.508,0A5.846,5.846,0,0,0,84.6,29.6a12.852,12.852,0,0,0,1.294-.8,17.913,17.913,0,0,0,2.565-2.016l2.375-2.254q2.375-2.54,4.75-5.152l4.512-5.2L104.554,8.9c1.472-1.741,2.968-3.483,4.488-5.248.784-.847,1.556-1.717,2.375-2.624a2.709,2.709,0,0,0,.4-.417.438.438,0,0,1,.5-.179.34.34,0,0,1,.135.083.346.346,0,0,1,.085.135.355.355,0,0,1,.015.159.347.347,0,0,1-.057.149c-.119.227-.214.394-.273.525L110.5,4.472c-.594,1-1.188,1.98-1.781,2.946q-1.664,2.862-3.373,5.582t-3.408,5.451a11.364,11.364,0,0,1-.759,1.193c-.262.358-.547.8-.82,1.193s-.582.99-.855,1.431a14.355,14.355,0,0,0-.76,1.419c-.143.251-.273.477-.38.7a3.821,3.821,0,0,0-.249.7q-.214.584,0,.5a1.7,1.7,0,0,0,.558-.429,11.907,11.907,0,0,0,.974-1.193c.333-.417.653-.835.985-1.193s.677-.787,1.033-1.193.5-.668.784-1.014.546-.692.8-1.026q1.6-2.039,3.229-4.067c1.081-1.336,2.185-2.7,3.325-4.055q2.244-2.6,4.489-5.1c1.5-1.682,3.063-3.328,4.678-4.926a5.137,5.137,0,0,1,.558-.644l.559-.537c.19-.191.332-.274.451-.274a.274.274,0,0,1,.138.057.27.27,0,0,1,.087.122.328.328,0,0,1-.1.274.814.814,0,0,1-.178.3l-.213.25a1.685,1.685,0,0,1-.226.358,2.381,2.381,0,0,0-.273.322,8.381,8.381,0,0,1-.523.728,6.718,6.718,0,0,0-.51.716c-.689.978-1.378,1.932-2.043,2.862s-1.341,1.9-2.006,2.862c-1.259,1.908-2.506,3.816-3.753,5.749a61.273,61.273,0,0,0-3.384,5.963c-.237.513-.487,1.038-.724,1.562a16.821,16.821,0,0,0-.63,1.61,9.956,9.956,0,0,0-.653,1.586,5.658,5.658,0,0,0-.225,1.61,1.667,1.667,0,0,0,.118.632.524.524,0,0,0,.464.37,1.4,1.4,0,0,0,.7-.1,3.192,3.192,0,0,0,.653-.358,8.042,8.042,0,0,0,1.306-.93c.38-.346.772-.728,1.188-1.121a27.809,27.809,0,0,0,2.173-2.564c.677-.883,1.365-1.777,2.054-2.648a.5.5,0,0,1,.333-.25c.166,0,.273,0,.332.25s.083.25,0,.286l-.131.25-.3.322a1.45,1.45,0,0,0-.25.37c-.356.417-.712.859-1.057,1.336s-.688.918-1.045,1.336a15.921,15.921,0,0,1-1.033,1.276c-.368.394-.736.787-1.128,1.193s-.783.763-1.187,1.109a7.029,7.029,0,0,1-1.188.883,3.229,3.229,0,0,1-1.484.382,1.34,1.34,0,0,1-1.187-.656,2.544,2.544,0,0,1-.4-1.431,13.82,13.82,0,0,1,.083-1.562,16.367,16.367,0,0,1,.784-3.137,24.785,24.785,0,0,1,1.33-2.993c.475-1.026,1-2.016,1.555-2.97s1.188-1.884,1.722-2.791q.582-.918,1.188-1.753c.379-.561.783-1.121,1.187-1.694q-4.75,5.617-9.12,11.39c-.391.453-.771.895-1.187,1.336a12.9,12.9,0,0,0-1.033,1.336c-.333.453-.713.895-1.057,1.324a10.562,10.562,0,0,1-1.1,1.193,3.682,3.682,0,0,1-.807.608.781.781,0,0,1-.938-.155,1.088,1.088,0,0,1-.249-.656,2.815,2.815,0,0,1,.071-.775,5.021,5.021,0,0,1,.226-.751c.083-.239.154-.453.226-.632q.629-1.6,1.389-3.113c.511-1.014,1.021-2,1.52-2.97s1.1-1.992,1.686-2.982,1.187-1.92,1.781-2.839L106.917,7.1c-2.126,2.481-4.216,4.973-6.258,7.454S96.5,19.476,94.342,21.9q-1.187,1.324-2.375,2.54c-.76.823-1.544,1.622-2.375,2.385S88,28.266,87.217,28.958a11.17,11.17,0,0,1-2.779,1.682,4.489,4.489,0,0,1-1.425.5,3.951,3.951,0,0,1-1.544,0A3.859,3.859,0,0,1,79.1,29.506a5.064,5.064,0,0,1-.665-3.137,11.467,11.467,0,0,1,.76-3.125,16.938,16.938,0,0,1,2.969-4.95,19.166,19.166,0,0,1,4.358-3.817A12.57,12.57,0,0,1,89.081,13.1a8.78,8.78,0,0,1,2.826-.656h.938a8.52,8.52,0,0,1,1.306.167,6.024,6.024,0,0,1,1.187.334c.38.155.594.334.653.549a.395.395,0,0,1,0,.477.32.32,0,0,1-.451,0,6.246,6.246,0,0,0-2.826-.656,7.711,7.711,0,0,0-3.23.7" data-name="Path 6" id="Path_6"/>
    <path style="fill: rgb(60, 55, 56);" d="M114.481,22.1l-1.615,2.552a7.8,7.8,0,0,0-1,1.586,3.177,3.177,0,0,0-.2.561c0,.2,0,.3.3.3a1.328,1.328,0,0,0,.986-.406,3.9,3.9,0,0,0,.629-.5,5.912,5.912,0,0,1,.63-.549c.415-.417.795-.835,1.187-1.193A8.915,8.915,0,0,0,116.44,23.1a12.174,12.174,0,0,0,.831-.99l.8-1c.3-.429.6-.871.914-1.336s.641-.918.974-1.348.653-.883.985-1.312.654-.883.986-1.36l.582-.644a.853.853,0,0,1,.5-.358.508.508,0,0,1,.581.227.489.489,0,0,1,0,.632c-.807,1.062-1.662,2.314-2.564,3.745s-1.746,2.779-2.553,4.019c-1.188,1.813-2.316,3.578-3.444,5.427l-3.349,5.427c-.593.966-1.187,1.956-1.793,2.97s-1.187,2.028-1.709,3.017c-.238.513-.487,1.014-.737,1.5a15.7,15.7,0,0,0-.7,1.491,5.359,5.359,0,0,1-.2.692,6.7,6.7,0,0,0-.2.68,1.432,1.432,0,0,1-.249.405.415.415,0,0,1-.428.131.546.546,0,0,1-.3-.105.552.552,0,0,1-.19-.253,1.589,1.589,0,0,1-.118-.728,2.273,2.273,0,0,1,.1-.8,2.381,2.381,0,0,0,.106-.608c.19-.513.38-1.026.594-1.539a9.149,9.149,0,0,1,.713-1.455c.534-1,1.116-1.98,1.733-2.934s1.188-1.9,1.817-2.839c.9-1.36,1.793-2.684,2.7-4s1.781-2.6,2.648-3.9c.118-.215.237-.405.356-.584a6.182,6.182,0,0,1,.415-.549l.357-.6c-.333.429-.677.859-1.034,1.276a13.4,13.4,0,0,1-1.128,1.193l-1.056.883a2.051,2.051,0,0,1-1.188.525,1.406,1.406,0,0,1-.985-.179,1.2,1.2,0,0,1-.372-.373,1.21,1.21,0,0,1-.175-.5,2.327,2.327,0,0,1,0-.99,7.457,7.457,0,0,1,.321-.918,13.016,13.016,0,0,1,.855-1.9,34.575,34.575,0,0,1,2.244-3.459l1.39-1.837c.451-.584.926-1.193,1.436-1.741a2.935,2.935,0,0,1,.3-.417l.333-.406a3.266,3.266,0,0,0,.32-.382.667.667,0,0,1,.4-.3.5.5,0,0,1,.191-.075.493.493,0,0,1,.2.008.494.494,0,0,1,.317.247.64.64,0,0,1,.178.372.647.647,0,0,1-.083.4s-.13.2-.475.68L117.319,18.1c-.5.68-1.01,1.383-1.532,2.135l-1.318,1.872" data-name="Path 7" id="Path_7"/>
    <path style="fill: rgb(60, 55, 56);" d="M0,77.988H200V34.694H0Zm199.489-.525H.522V35.219H199.466Z" data-name="Path 8" id="Path_8"/>
    <path style="fill: rgb(60, 55, 56);" d="M16.114,51.678h-2.85V64.714h2.85Z" data-name="Path 9" id="Path_9"/>
    <path style="fill: rgb(60, 55, 56);" d="M27,56.806c0-2.3,1.746-2.791,3.206-2.791,2.066,0,3.111.942,3.111,2.791v7.907h2.85V56.58a4.672,4.672,0,0,0-1.7-3.781,6.346,6.346,0,0,0-4.1-1.264A6.7,6.7,0,0,0,27,52.358v-.68h-2.85V64.714H27Z" data-name="Path 10" id="Path_10"/>
    <path style="fill: rgb(60, 55, 56);" d="M44.375,60.969a3.646,3.646,0,0,0,2.483,3.578,3.62,3.62,0,0,0,1.531.167h1.959V62.233h-1.7c-1.259,0-1.425-.6-1.425-1.193V53.992h3.123V51.678H47.224V47.957h-2.85v3.721H42.486v2.314h1.888Z" data-name="Path 11" id="Path_11"/>
    <path style="fill: rgb(60, 55, 56);" d="M60.061,51.678h-2.85V64.714h2.85Z" data-name="Path 12" id="Path_12"/>
    <path style="fill: rgb(60, 55, 56);" d="M70.938,56.806c0-2.3,1.745-2.791,3.206-2.791,2.066,0,3.111.942,3.111,2.791v7.907H80.1V56.58c0-1.574,1.187-2.564,3.206-2.564s3.111.942,3.111,2.791v7.907h2.826V56.58a4.7,4.7,0,0,0-1.7-3.781,6.368,6.368,0,0,0-4.073-1.264,6.562,6.562,0,0,0-4.655,1.729,5.923,5.923,0,0,0-4.477-1.729,6.875,6.875,0,0,0-3.408.835v-.692H68.1V64.714h2.838Z" data-name="Path 13" id="Path_13"/>
    <path style="fill: rgb(60, 55, 56);" d="M99.947,51.678H97.1V64.714h2.85Z" data-name="Path 14" id="Path_14"/>
    <path style="fill: rgb(60, 55, 56);" d="M112.866,62.376a5.742,5.742,0,0,1-4.061-1.193l-.451-.394-2.114,1.789.665.525a9.079,9.079,0,0,0,6.02,1.813c3.776,0,6.222-1.622,6.222-4.15,0-3.387-3.408-3.649-4.69-3.745l-2.232-.155c-2.161-.167-2.161-.882-2.161-1.264,0-1.348,1.769-1.55,2.826-1.55a6.66,6.66,0,0,1,3.562.882l.427.262,2.067-1.753-.784-.513a9.99,9.99,0,0,0-5.225-1.336c-3.372,0-5.652,1.61-5.652,4.007,0,1.551.831,3.459,4.75,3.733l2.291.179c2,.155,2,.847,2,1.193C116.321,62.09,114.445,62.376,112.866,62.376Z" data-name="Path 15" id="Path_15"/>
    <path style="fill: rgb(60, 55, 56);" d="M130.879,62.376a5.741,5.741,0,0,1-4.061-1.193l-.451-.394-2.114,1.789.665.525a9.129,9.129,0,0,0,6.021,1.813c3.776,0,6.222-1.622,6.222-4.15,0-3.387-3.4-3.649-4.679-3.745l-2.244-.155c-2.125-.227-2.125-.954-2.125-1.324,0-1.348,1.769-1.55,2.814-1.55a6.592,6.592,0,0,1,3.562.883l.428.262,2.089-1.753-.795-.513a9.987,9.987,0,0,0-5.225-1.336c-3.432,0-5.64,1.574-5.64,4.007,0,1.55.831,3.459,4.75,3.733l2.291.179c1.983.155,1.983.847,1.983,1.193,0,1.383-1.876,1.67-3.455,1.67" data-name="Path 16" id="Path_16"/>
    <path style="fill: rgb(60, 55, 56);" d="M146.874,51.678h-2.85V64.714h2.85Z" data-name="Path 17" id="Path_17"/>
    <path style="fill: rgb(60, 55, 56);" d="M157.8,56.806c0-2.3,1.734-2.791,3.195-2.791,2.066,0,3.111.942,3.111,2.791v7.907h2.862V56.58c0-1.574,1.187-2.564,3.194-2.564s3.111.942,3.111,2.791v7.907H176.1V56.58a4.782,4.782,0,0,0-1.674-3.781,7.172,7.172,0,0,0-8.74.465,5.924,5.924,0,0,0-4.477-1.729,6.8,6.8,0,0,0-3.408.8v-.692h-2.861V64.714H157.8Z" data-name="Path 18" id="Path_18"/>
    <path style="fill: rgb(60, 55, 56);" d="M186.772,51.678h-2.85V64.714h2.85Z" data-name="Path 19" id="Path_19"/>
  </g>
</svg>